<svg width="284.13" height="40" data-name="Layer 1" xmlns="http://www.w3.org/2000/svg"><path d="M29.649 19.207h9.302c.059 1.49.089 2.452.089 2.885 0 2.355-.35 4.196-1.05 5.523-.776 1.49-2.29 2.504-4.54 3.04-2.251.537-6.142.805-11.672.805-5.813 0-9.954-.111-12.42-.335-2.468-.224-4.327-.656-5.58-1.297-1.118-.581-1.953-1.364-2.504-2.348-.552-.983-.91-2.332-1.073-4.047C.067 22.047 0 19.543 0 15.92c0-3.533.067-6.082.2-7.647s.395-2.78.783-3.644c.85-1.938 2.571-3.194 5.165-3.768 2.593-.574 7.826-.86 15.697-.86 3.935 0 6.797.089 8.586.268s3.212.514 4.27 1.006c1.387.656 2.362 1.628 2.93 2.918.566 1.29.849 3.186.849 5.69 0 .134-.008.641-.022 1.52h-9.302c-.044-1.013-.108-1.691-.19-2.034a1.603 1.603 0 0 0-.503-.85c-.358-.313-1.26-.54-2.706-.682-1.446-.141-3.637-.212-6.573-.212-2.907 0-4.92.063-6.037.19-1.118.127-1.909.377-2.37.749-.553.447-.936 1.2-1.152 2.258-.217 1.059-.325 2.743-.325 5.054s.097 3.939.291 4.885c.194.947.566 1.629 1.118 2.046.522.403 1.353.67 2.493.805s3.156.201 6.049.201c3.562 0 5.936-.06 7.121-.179 1.186-.119 1.986-.38 2.404-.782.551-.522.842-1.737.872-3.645zM56.684 8.765c3.681 0 6.435.145 8.262.436 1.825.29 3.253.81 4.281 1.554a5.766 5.766 0 0 1 2.192 3.041c.387 1.252.581 3.235.581 5.948 0 2.012-.056 3.521-.168 4.528-.112 1.006-.316 1.911-.614 2.716-.776 2.028-2.348 3.317-4.718 3.869-1.968.461-5.232.693-9.794.693-4.04 0-6.931-.145-8.675-.436-1.744-.291-3.138-.868-4.181-1.733-1-.82-1.666-1.893-2.002-3.22-.335-1.327-.503-3.562-.503-6.708 0-1.789.07-3.149.213-4.08a8.184 8.184 0 0 1 .816-2.56c.82-1.58 2.205-2.646 4.158-3.198 1.953-.552 5.336-.835 10.151-.85zm.067 6.104c-2.683 0-4.494.209-5.433.626-.686.313-1.17.835-1.454 1.565-.283.731-.424 1.812-.424 3.243 0 1.416.118 2.43.357 3.04.238.612.694 1.074 1.364 1.387 1.029.477 2.885.715 5.568.715 3.07 0 5.034-.32 5.892-.961.856-.64 1.286-2.102 1.286-4.383 0-1.43-.135-2.474-.403-3.13-.268-.656-.753-1.133-1.453-1.43-1.029-.448-2.795-.671-5.3-.671zm18.311-5.545h7.625v3.242h.402c1.163-2.534 4.092-3.8 8.787-3.8 2.608 0 4.68.353 6.217 1.061 1.534.708 2.742 1.867 3.622 3.477.655-1.61 1.71-2.769 3.163-3.477 1.454-.708 3.514-1.062 6.183-1.062 2.236 0 4.065.22 5.49.66 1.423.44 2.596 1.151 3.521 2.135.924.97 1.535 2.061 1.834 3.276.297 1.215.447 3.223.447 6.026V30.99h-8.094V20.86c0-1.58-.06-2.682-.18-3.309-.12-.626-.365-1.125-.737-1.497-.79-.79-2.311-1.186-4.562-1.186-2.37 0-3.972.455-4.807 1.364-.462.507-.78 1.163-.95 1.968-.172.805-.258 2.087-.258 3.846v8.944h-8.094V20.86c0-1.683-.049-2.805-.145-3.364a2.654 2.654 0 0 0-.704-1.42c-.746-.805-2.244-1.208-4.495-1.208-2.43 0-4.084.44-4.964 1.32-.462.476-.779 1.125-.95 1.945-.171.82-.257 2.124-.257 3.913v8.944h-8.094V9.325zM125.82 40V9.322h7.625v2.93h.447c.685-1.342 1.732-2.259 3.141-2.75 1.41-.493 3.67-.739 6.786-.739 2.788 0 4.971.183 6.552.548 1.58.365 2.832.972 3.756 1.822.864.79 1.454 1.822 1.767 3.097s.47 3.283.47 6.026c0 1.833-.072 3.264-.213 4.293a11.175 11.175 0 0 1-.75 2.817c-.67 1.58-1.87 2.672-3.6 3.276-1.729.604-4.509.906-8.34.906-2.757 0-4.777-.235-6.06-.705-1.281-.47-2.317-1.352-3.107-2.65h-.38V40h-8.094zm15.562-25.132c-3.398 0-5.493.343-6.283 1.028-.79.687-1.185 2.184-1.185 4.495 0 1.237.112 2.173.336 2.806.223.633.61 1.107 1.162 1.42.94.551 2.847.827 5.724.827 2.981 0 4.92-.298 5.814-.894.506-.343.853-.853 1.04-1.532.186-.678.279-1.74.279-3.186 0-1.327-.112-2.28-.335-2.862-.224-.582-.649-1.036-1.275-1.364-.925-.477-2.683-.723-5.277-.738zm47.224 16.123h-7.624V27.75h-.403c-.641 1.386-1.662 2.367-3.063 2.94-1.402.574-3.474.861-6.217.861-2.504 0-4.493-.209-5.969-.626-1.476-.416-2.699-1.118-3.667-2.102-.984-1.013-1.629-2.127-1.934-3.343-.306-1.214-.459-3.298-.459-6.249V9.325h8.094v9.905c0 1.58.075 2.705.224 3.376.15.67.448 1.222.894 1.654.462.447 1.066.757 1.812.928.745.172 1.893.258 3.443.258 2.623 0 4.405-.403 5.344-1.208.581-.507.965-1.159 1.152-1.956.186-.798.28-2.21.28-4.238v-8.72h8.093V30.99zm1.832-30.52h36.938v7.78h-13.573v22.74h-9.772V8.251h-13.594z" fill="#fff"/><path d="M243.77 24.059h8.072c-.224 2.355-.94 4.047-2.147 5.076-1.044.91-2.52 1.54-4.427 1.889-1.909.35-4.77.525-8.586.525-3.146 0-5.56-.152-7.245-.458-1.685-.305-3.018-.83-4.002-1.576-1.044-.79-1.76-1.845-2.147-3.164-.388-1.32-.581-3.35-.581-6.093 0-2.057.074-3.604.223-4.64.15-1.036.432-1.97.85-2.806.864-1.729 2.43-2.854 4.696-3.376 1.937-.448 4.949-.671 9.033-.671 3.607 0 6.15.127 7.625.38 2.623.447 4.427 1.427 5.411 2.94.984 1.514 1.476 4.059 1.476 7.636 0 .344-.016 1.074-.045 2.192h-21.175c0 1.102.07 1.892.212 2.37.142.476.421.872.84 1.185.804.596 2.622.894 5.455.894 1.803 0 3.156-.07 4.058-.212.902-.141 1.516-.377 1.845-.705.268-.268.454-.73.56-1.386zm.112-6.574c-.03-.85-.086-1.435-.168-1.755a1.954 1.954 0 0 0-.48-.861c-.702-.716-2.572-1.073-5.613-1.073-2.728 0-4.532.238-5.411.715-.88.477-1.35 1.469-1.409 2.974h13.08zm31.974 4.808h8.25c-.074 1.804-.257 3.178-.547 4.125a6.061 6.061 0 0 1-1.487 2.493c-1.044 1.058-2.445 1.763-4.204 2.113-1.76.35-4.762.525-9.01.525-3.34 0-5.841-.141-7.502-.424-1.663-.284-3.038-.806-4.126-1.566-1.044-.745-1.766-1.807-2.169-3.186-.402-1.379-.603-3.5-.603-6.362 0-2.608.186-4.575.559-5.902.372-1.327 1.035-2.378 1.99-3.153 1.043-.835 2.43-1.409 4.159-1.722 1.728-.313 4.427-.47 8.093-.47 3.593 0 6.302.165 8.129.493 1.825.328 3.253.902 4.281 1.721a5.624 5.624 0 0 1 1.823 2.583c.35 1.021.562 2.545.637 4.572h-8.25c-.134-1.237-.682-2.09-1.644-2.56-.961-.47-2.627-.704-4.997-.704-2.4 0-4.078.223-5.031.67-.597.299-1.022.81-1.275 1.532-.254.723-.38 1.793-.38 3.209 0 1.386.134 2.407.402 3.063.268.656.745 1.133 1.431 1.431 1.014.447 2.668.67 4.964.67 2.385 0 4.02-.215 4.908-.648.887-.432 1.42-1.267 1.599-2.504z" fill="#fff"/></svg>