<svg id="Layer_1" data-name="Layer 1" xmlns="http://www.w3.org/2000/svg" viewBox="0 0 744.856 143.878"><defs><style>.cls-1{fill:#ed1c24}</style></defs><path d="M77.695 50.332h24.375c.156 3.907.235 6.426.235 7.559 0 6.172-.919 10.996-2.754 14.472-2.032 3.907-5.997 6.563-11.895 7.97-5.899 1.405-16.094 2.108-30.586 2.108-15.234 0-26.084-.293-32.548-.878-6.466-.586-11.338-1.719-14.62-3.399-2.93-1.523-5.117-3.574-6.562-6.152C1.894 69.434.957 65.899.527 61.406.176 57.774 0 51.211 0 41.72c0-9.258.176-15.938.527-20.04s1.035-7.284 2.051-9.55c2.227-5.079 6.738-8.37 13.535-9.874C22.91.752 36.621 0 57.246 0c10.313 0 17.813.234 22.5.703s8.418 1.348 11.192 2.637c3.632 1.719 6.19 4.268 7.675 7.646 1.484 3.38 2.227 8.35 2.227 14.912 0 .352-.02 1.68-.059 3.985H76.406c-.117-2.656-.283-4.433-.498-5.332-.215-.898-.655-1.64-1.318-2.227-.938-.82-3.301-1.415-7.09-1.787-3.79-.37-9.532-.556-17.226-.556-7.618 0-12.891.166-15.82.498-2.93.332-5.001.986-6.212 1.962-1.446 1.172-2.451 3.145-3.017 5.918-.567 2.774-.85 7.188-.85 13.243s.253 10.322.762 12.802c.507 2.481 1.484 4.268 2.93 5.362 1.366 1.054 3.544 1.757 6.533 2.109s8.27.527 15.85.527c9.335 0 15.556-.155 18.661-.468 3.106-.312 5.205-.997 6.3-2.051 1.444-1.367 2.206-4.55 2.284-9.551Zm70.84-27.363c9.648 0 16.865.38 21.65 1.142 4.785.762 8.526 2.12 11.221 4.073 2.813 2.031 4.726 4.687 5.742 7.969 1.016 3.28 1.524 8.477 1.524 15.585 0 5.274-.147 9.229-.44 11.866s-.83 5.01-1.61 7.119c-2.033 5.313-6.153 8.692-12.364 10.136-5.156 1.21-13.711 1.817-25.664 1.817-10.587 0-18.164-.381-22.735-1.143s-8.223-2.275-10.957-4.54c-2.617-2.149-4.365-4.961-5.244-8.438-.879-3.476-1.318-9.336-1.318-17.578 0-4.688.185-8.252.556-10.694.371-2.44 1.084-4.677 2.14-6.709 2.147-4.14 5.78-6.933 10.897-8.379 5.117-1.444 13.984-2.187 26.602-2.226Zm.176 15.996c-7.031 0-11.777.547-14.238 1.64-1.798.82-3.067 2.189-3.809 4.102-.743 1.915-1.113 4.746-1.113 8.496 0 3.712.312 6.368.937 7.969.625 1.602 1.817 2.813 3.574 3.633 2.696 1.25 7.56 1.875 14.59 1.875 8.047 0 13.193-.84 15.44-2.52 2.245-1.679 3.369-5.507 3.369-11.484 0-3.75-.352-6.484-1.055-8.203-.703-1.718-1.973-2.968-3.808-3.75-2.696-1.172-7.325-1.758-13.887-1.758ZM196.7 24.434h19.98v8.496h1.054c3.047-6.64 10.723-9.961 23.028-9.961 6.835 0 12.265.928 16.289 2.783 4.023 1.856 7.187 4.893 9.492 9.111 1.718-4.219 4.482-7.255 8.291-9.111 3.809-1.855 9.209-2.783 16.201-2.783 5.86 0 10.654.576 14.385 1.728 3.73 1.153 6.806 3.018 9.229 5.596 2.42 2.54 4.022 5.4 4.804 8.584.781 3.184 1.172 8.448 1.172 15.791v26.543h-21.21V54.668c0-4.14-.157-7.031-.47-8.672-.313-1.64-.957-2.949-1.933-3.926-2.071-2.07-6.055-3.105-11.953-3.105-6.211 0-10.41 1.192-12.598 3.574-1.211 1.329-2.041 3.047-2.49 5.156-.45 2.11-.674 5.47-.674 10.078v23.438h-21.21V54.668c0-4.414-.128-7.354-.382-8.819-.254-1.464-.87-2.704-1.845-3.72-1.954-2.11-5.88-3.164-11.778-3.164-6.367 0-10.703 1.152-13.008 3.457-1.211 1.25-2.041 2.95-2.49 5.097-.45 2.15-.674 5.567-.674 10.254v23.438H196.7V24.434Zm133.007 80.391V24.434h19.98v7.675h1.172c1.796-3.515 4.541-5.918 8.233-7.207s9.618-1.933 17.783-1.933c7.304 0 13.027.479 17.168 1.435 4.14.958 7.42 2.55 9.844 4.776 2.264 2.07 3.808 4.775 4.629 8.115s1.23 8.604 1.23 15.79c0 4.806-.185 8.556-.556 11.25-.373 2.696-1.026 5.157-1.963 7.384-1.758 4.14-4.903 7.002-9.434 8.584-4.532 1.582-11.816 2.373-21.855 2.373-7.228 0-12.52-.615-15.88-1.846-3.36-1.23-6.074-3.545-8.144-6.943h-.996v30.938h-21.21Zm40.781-65.86c-8.906 0-14.394.899-16.465 2.695-2.07 1.798-3.105 5.723-3.105 11.777 0 3.243.293 5.694.879 7.354.586 1.66 1.601 2.9 3.047 3.72 2.46 1.446 7.46 2.169 15 2.169 7.812 0 12.89-.781 15.234-2.344 1.327-.898 2.235-2.236 2.725-4.014.488-1.777.732-4.56.732-8.35 0-3.476-.293-5.976-.879-7.5s-1.699-2.714-3.34-3.574c-2.423-1.25-7.03-1.894-13.828-1.933Zm123.75 42.245h-19.98v-8.495h-1.055c-1.68 3.633-4.356 6.201-8.027 7.705-3.672 1.503-9.103 2.256-16.29 2.256-6.562 0-11.777-.548-15.644-1.64s-7.07-2.93-9.61-5.509c-2.577-2.655-4.268-5.575-5.068-8.76-.8-3.183-1.2-8.642-1.2-16.376V24.434h21.21V50.39c0 4.14.195 7.09.586 8.847.39 1.758 1.172 3.204 2.344 4.336 1.21 1.172 2.792 1.983 4.746 2.432 1.953.45 4.96.674 9.023.674 6.875 0 11.543-1.055 14.004-3.165 1.524-1.327 2.528-3.036 3.018-5.127.488-2.089.732-5.79.732-11.103V24.433h21.211v56.778Z" style="fill:#1565b1"/><path class="cls-1" d="M499.043 1.23h96.797v20.391h-35.567v59.59h-25.605V21.62h-35.625V1.231Z"/><path class="cls-1" d="M638.79 63.047h21.151c-.586 6.172-2.46 10.605-5.625 13.3-2.734 2.384-6.601 4.034-11.601 4.952-5.001.917-12.501 1.377-22.5 1.377-8.242 0-14.57-.401-18.985-1.201-4.415-.8-7.91-2.177-10.488-4.131-2.734-2.07-4.61-4.834-5.625-8.291-1.017-3.457-1.523-8.779-1.523-15.967 0-5.39.195-9.443.586-12.158.39-2.715 1.132-5.166 2.226-7.354 2.265-4.53 6.366-7.48 12.305-8.847 5.077-1.172 12.969-1.758 23.672-1.758 9.453 0 16.113.332 19.98.996 6.875 1.172 11.602 3.74 14.18 7.705 2.578 3.965 3.867 10.635 3.867 20.01 0 .899-.039 2.812-.117 5.742h-55.488c0 2.891.184 4.961.556 6.21.371 1.251 1.104 2.286 2.198 3.106 2.109 1.563 6.875 2.344 14.297 2.344 4.725 0 8.27-.185 10.634-.556 2.364-.371 3.975-.986 4.834-1.846.703-.703 1.192-1.914 1.465-3.633Zm.292-17.227c-.079-2.226-.226-3.759-.44-4.6a5.11 5.11 0 0 0-1.26-2.255c-1.836-1.875-6.737-2.813-14.706-2.813-7.149 0-11.875.626-14.18 1.875-2.306 1.25-3.536 3.848-3.691 7.793h34.277Zm83.789 12.598h21.621c-.196 4.727-.674 8.33-1.435 10.81a15.874 15.874 0 0 1-3.897 6.534c-2.734 2.774-6.407 4.62-11.015 5.537-4.61.917-12.48 1.377-23.614 1.377-8.75 0-15.302-.372-19.658-1.114-4.356-.741-7.96-2.109-10.81-4.101-2.735-1.953-4.63-4.736-5.684-8.35-1.055-3.613-1.582-9.17-1.582-16.67 0-6.835.488-11.991 1.465-15.468.975-3.477 2.715-6.23 5.215-8.262 2.733-2.187 6.366-3.692 10.898-4.512 4.531-.82 11.602-1.23 21.21-1.23 9.414 0 16.515.43 21.3 1.289 4.784.86 8.525 2.364 11.22 4.511 2.265 1.837 3.858 4.093 4.776 6.768.917 2.676 1.473 6.67 1.67 11.982H722.93c-.352-3.241-1.787-5.478-4.307-6.709s-6.885-1.845-13.096-1.845c-6.29 0-10.684.586-13.183 1.758-1.563.781-2.676 2.12-3.34 4.013-.665 1.895-.996 4.698-.996 8.408 0 3.633.351 6.31 1.055 8.028.703 1.719 1.953 2.969 3.75 3.75 2.656 1.172 6.992 1.758 13.007 1.758 6.25 0 10.537-.566 12.862-1.7 2.323-1.132 3.72-3.32 4.19-6.562Z"/><path d="M106.154 103.537h4.19l-1.7 12.1h16.406l1.7-12.1h4.189l-1.7 12.1h7.999l-.528 3.808h-7.998l-1.142 8.174h7.998l-.527 3.808h-7.998l-1.7 12.1h-4.218l1.699-12.1h-16.406l-1.7 12.1h-4.19l1.7-12.1H94.23l.527-3.808h7.998l1.172-8.174H95.93l.528-3.809h7.998l1.699-12.1Zm1.963 15.908-1.143 8.174h16.406l1.143-8.174h-16.406Zm35.625-15.908h5.332v39.99h-5.332v-39.99Zm10.722 12.187h4.395v4.19h.322a7.385 7.385 0 0 1 2.93-3.018c1.797-1.016 5.498-1.523 11.104-1.523 4.96 0 8.515.41 10.664 1.23 2.07.781 3.477 2.207 4.219 4.277.547 1.563.82 3.877.82 6.944v15.703h-4.394v-13.828c0-2.617-.137-4.531-.41-5.742-.45-2.032-1.641-3.34-3.575-3.926-1.719-.527-4.336-.791-7.851-.791-4.473 0-7.784.478-9.932 1.435-1.133.508-2.061 1.338-2.784 2.49-.567.88-.908 2.1-1.025 3.663-.059.703-.088 1.982-.088 3.838v12.86h-4.394v-27.802Zm39.054 0h4.394v4.19h.322a7.388 7.388 0 0 1 2.93-3.018c1.797-1.016 5.498-1.523 11.104-1.523 4.96 0 8.515.41 10.664 1.23 2.07.781 3.476 2.207 4.218 4.277.547 1.563.82 3.877.82 6.944v15.703h-4.394v-13.828c0-2.617-.136-4.531-.41-5.742-.45-2.032-1.64-3.34-3.574-3.926-1.719-.527-4.336-.791-7.852-.791-4.472 0-7.783.478-9.931 1.435-1.133.508-2.06 1.338-2.784 2.49-.566.88-.908 2.1-1.025 3.663-.058.703-.088 1.982-.088 3.838v12.86h-4.394v-27.802Zm55.81-.351c4.434 0 7.705.146 9.815.44 2.187.331 3.916.966 5.185 1.903 1.797 1.309 2.969 3.038 3.516 5.186.508 1.953.761 4.19.761 6.709 0 3.73-.468 6.562-1.406 8.496-.937 1.973-2.324 3.398-4.16 4.277-1.64.762-3.78 1.211-6.416 1.348a97.886 97.886 0 0 1-5.537.147c-4.2 0-7.285-.147-9.258-.44-3.613-.527-6.191-1.894-7.734-4.102-1.406-2.03-2.11-5.205-2.11-9.521 0-4.102.577-7.168 1.729-9.2 1.035-1.796 2.412-3.085 4.13-3.866 1.563-.684 3.526-1.094 5.89-1.231a97.757 97.757 0 0 1 5.595-.146Zm.381 3.867c-2.832 0-4.99.107-6.475.322-2.832.43-4.677 1.582-5.537 3.457-.683 1.523-1.025 3.799-1.025 6.826 0 3.106.42 5.381 1.26 6.827.937 1.62 2.851 2.627 5.742 3.017 1.543.215 3.887.322 7.031.322 3.34 0 5.713-.136 7.12-.41 2.577-.488 4.286-1.62 5.126-3.398.645-1.387.967-3.633.967-6.739 0-2.91-.332-5.039-.996-6.386-.684-1.426-1.797-2.412-3.34-2.96-1.64-.585-4.932-.878-9.873-.878Zm19.189-3.516h5.127l13.477 23.73h.469l13.535-23.73h5.303l-16.172 27.803h-5.713l-16.025-27.803Zm43.975 8.35h-4.57a24.517 24.517 0 0 1-.059-1.348c0-2.266.752-4.004 2.256-5.215 1.016-.8 2.588-1.367 4.717-1.699 1.972-.313 4.844-.469 8.613-.469 5.625 0 9.57.361 11.836 1.084 1.7.527 3.047 1.533 4.043 3.018.8 1.172 1.28 2.851 1.435 5.039.06.742.088 2.207.088 4.394v14.649h-4.365l.088-3.252h-.234c-.743 1.035-1.602 1.826-2.578 2.373-.88.508-2.178.85-3.897 1.025-1.27.137-3.31.205-6.123.205-5.39 0-8.965-.146-10.723-.44-2.539-.429-4.326-1.454-5.36-3.075-.665-1.055-.997-2.696-.997-4.922 0-2.676.45-4.59 1.348-5.743 1.074-1.347 2.87-2.177 5.39-2.49 1.465-.176 3.946-.263 7.442-.263 6.738 0 10.879.263 12.422.79 1.093.372 2.04 1.104 2.841 2.198h.381v-2.988c0-2.442-.44-4.2-1.318-5.274-.781-.937-1.944-1.582-3.486-1.933-1.582-.352-4.2-.528-7.852-.528-5.117 0-8.281.313-9.492.938-1.094.566-1.7 1.592-1.817 3.076-.02.215-.029.498-.029.85Zm11.045 6.738c-3.926 0-6.563.078-7.91.234-1.758.215-2.94.733-3.545 1.553-.489.684-.733 1.66-.733 2.93 0 1.816.684 3.047 2.051 3.691.703.332 1.924.547 3.662.645 1.66.097 4.297.146 7.91.146 5.06 0 8.252-.42 9.58-1.26 1.075-.683 1.612-1.787 1.612-3.31 0-1.602-.625-2.735-1.875-3.399-1.543-.82-5.127-1.23-10.752-1.23Zm26.132-21.972h4.395v6.884h19.453v3.75h-19.453v12.07c.04 2.54.108 4.112.205 4.717.137.977.606 1.787 1.407 2.432 1.054.879 3.29 1.318 6.709 1.318 2.148 0 3.71-.175 4.687-.527 1.328-.488 2.11-1.475 2.344-2.959.137-.8.205-2.07.205-3.809v-1.757h4.365v1.757c0 2.012-.097 3.633-.293 4.864-.39 2.324-1.552 3.974-3.486 4.95-1.777.9-4.502 1.349-8.174 1.349-3.887 0-6.787-.46-8.701-1.377-1.64-.801-2.705-2.159-3.194-4.073-.312-1.23-.468-3.037-.468-5.42v-13.535h-6.826v-3.75h6.826v-6.885Zm27.716-5.303h4.394v5.214h-4.394v-5.214Zm0 12.187h4.394v27.803h-4.394v-27.803Zm26.162-.351c4.433 0 7.705.146 9.814.44 2.188.331 3.916.966 5.186 1.903 1.797 1.309 2.969 3.038 3.515 5.186.508 1.953.762 4.19.762 6.709 0 3.73-.469 6.562-1.406 8.496-.938 1.973-2.324 3.398-4.16 4.277-1.641.762-3.78 1.211-6.416 1.348a97.886 97.886 0 0 1-5.537.147c-4.2 0-7.286-.147-9.258-.44-3.614-.527-6.192-1.894-7.735-4.102-1.406-2.03-2.11-5.205-2.11-9.521 0-4.102.577-7.168 1.73-9.2 1.035-1.796 2.412-3.085 4.13-3.866 1.563-.684 3.526-1.094 5.889-1.231 1.7-.098 3.565-.146 5.596-.146Zm.38 3.867c-2.831 0-4.99.107-6.474.322-2.832.43-4.678 1.582-5.537 3.457-.684 1.523-1.026 3.799-1.026 6.826 0 3.106.42 5.381 1.26 6.827.938 1.62 2.852 2.627 5.742 3.017 1.543.215 3.887.322 7.032.322 3.34 0 5.713-.136 7.119-.41 2.578-.488 4.287-1.62 5.127-3.398.644-1.387.967-3.633.967-6.739 0-2.91-.332-5.039-.996-6.386-.684-1.426-1.797-2.412-3.34-2.96-1.64-.585-4.932-.878-9.873-.878Zm23.086-3.516h4.395v4.19h.322a7.388 7.388 0 0 1 2.93-3.018c1.797-1.016 5.498-1.523 11.104-1.523 4.96 0 8.515.41 10.664 1.23 2.07.781 3.476 2.207 4.218 4.277.547 1.563.82 3.877.82 6.944v15.703h-4.394v-13.828c0-2.617-.136-4.531-.41-5.742-.45-2.032-1.64-3.34-3.574-3.926-1.719-.527-4.336-.791-7.852-.791-4.473 0-7.783.478-9.931 1.435-1.133.508-2.06 1.338-2.784 2.49-.566.88-.908 2.1-1.025 3.663-.059.703-.088 1.982-.088 3.838v12.86h-4.394v-27.802Zm39.639-12.187h10.664l21.71 33.896 21.357-33.896h10.722v39.99h-5.332v-35.04h-2.226l-22.324 35.04h-4.336l-22.559-35.04h-2.344v35.04h-5.332v-39.99Zm74.649 20.537h-4.57a24.517 24.517 0 0 1-.06-1.348c0-2.266.753-4.004 2.257-5.215 1.015-.8 2.588-1.367 4.716-1.699 1.973-.313 4.844-.469 8.614-.469 5.625 0 9.57.361 11.836 1.084 1.699.527 3.047 1.533 4.043 3.018.8 1.172 1.279 2.851 1.435 5.039.059.742.088 2.207.088 4.394v14.649h-4.365l.088-3.252h-.235c-.742 1.035-1.601 1.826-2.578 2.373-.879.508-2.177.85-3.896 1.025-1.27.137-3.31.205-6.123.205-5.39 0-8.965-.146-10.723-.44-2.54-.429-4.326-1.454-5.361-3.075-.664-1.055-.996-2.696-.996-4.922 0-2.676.449-4.59 1.347-5.743 1.075-1.347 2.871-2.177 5.39-2.49 1.466-.176 3.946-.263 7.442-.263 6.739 0 10.88.263 12.422.79 1.094.372 2.041 1.104 2.842 2.198h.38v-2.988c0-2.442-.439-4.2-1.317-5.274-.782-.937-1.944-1.582-3.487-1.933-1.582-.352-4.199-.528-7.851-.528-5.118 0-8.282.313-9.493.938-1.093.566-1.699 1.592-1.816 3.076a9.58 9.58 0 0 0-.03.85Zm11.044 6.738c-3.925 0-6.562.078-7.91.234-1.758.215-2.94.733-3.545 1.553-.488.684-.732 1.66-.732 2.93 0 1.816.684 3.047 2.05 3.691.704.332 1.925.547 3.663.645 1.66.097 4.297.146 7.91.146 5.059 0 8.252-.42 9.58-1.26 1.074-.683 1.612-1.787 1.612-3.31 0-1.602-.625-2.735-1.875-3.399-1.543-.82-5.127-1.23-10.752-1.23Zm26.134-21.972h4.394v6.884h19.453v3.75h-19.453v12.07c.039 2.54.107 4.112.205 4.717.137.977.606 1.787 1.406 2.432 1.055.879 3.291 1.318 6.71 1.318 2.148 0 3.71-.175 4.687-.527 1.328-.488 2.11-1.475 2.344-2.959.136-.8.205-2.07.205-3.809v-1.757h4.365v1.757c0 2.012-.098 3.633-.293 4.864-.39 2.324-1.553 3.974-3.487 4.95-1.777.9-4.502 1.349-8.173 1.349-3.887 0-6.787-.46-8.702-1.377-1.64-.801-2.705-2.159-3.193-4.073-.312-1.23-.469-3.037-.469-5.42v-13.535h-6.826v-3.75h6.826v-6.885Zm31.728 0h4.394v6.884h19.454v3.75h-19.454v12.07c.04 2.54.108 4.112.206 4.717.136.977.605 1.787 1.406 2.432 1.054.879 3.29 1.318 6.709 1.318 2.148 0 3.71-.175 4.687-.527 1.328-.488 2.11-1.475 2.344-2.959.137-.8.205-2.07.205-3.809v-1.757h4.365v1.757c0 2.012-.097 3.633-.293 4.864-.39 2.324-1.552 3.974-3.486 4.95-1.777.9-4.502 1.349-8.174 1.349-3.887 0-6.787-.46-8.701-1.377-1.64-.801-2.705-2.159-3.193-4.073-.313-1.23-.47-3.037-.47-5.42v-13.535h-6.825v-3.75h6.826v-6.885Zm58.389 26.103h4.6c-.06 2.344-.606 4.13-1.641 5.361-1.211 1.406-3.145 2.403-5.801 2.989-1.797.39-4.395.585-7.793.585-4.961 0-8.652-.195-11.074-.585-2.637-.43-4.61-1.24-5.918-2.432-2.266-2.11-3.399-5.83-3.399-11.162 0-4.102.596-7.188 1.787-9.258 1.367-2.363 3.643-3.867 6.826-4.512 1.836-.37 4.776-.556 8.819-.556 4.668 0 8.027.234 10.078.703 3.555.82 5.918 2.754 7.09 5.8.683 1.758 1.045 4.669 1.084 8.731h-30.967c.117 3.457.8 5.83 2.05 7.12.938.976 2.637 1.63 5.098 1.962 1.641.215 4.297.322 7.97.322 2.421 0 4.267-.078 5.536-.234s2.373-.44 3.31-.85c1.134-.507 1.847-1.318 2.14-2.431.078-.293.146-.81.205-1.553Zm-.206-8.086c-.019-2.715-.742-4.61-2.168-5.684-1.152-.878-2.9-1.435-5.244-1.67-1.738-.175-3.779-.263-6.123-.263-3.007 0-5.37.166-7.09.498-2.285.469-3.808 1.63-4.57 3.486-.41.957-.664 2.168-.761 3.633h25.957Zm8.877-11.133h4.395v3.75h.293c.684-1.25 1.728-2.236 3.135-2.959.957-.488 2.295-.81 4.013-.967 1.27-.117 3.116-.176 5.538-.176 3.261 0 5.693.274 7.294.82 3.34 1.173 5.01 4.23 5.01 9.17v2.872h-4.511v-1.992c0-1.602-.127-2.842-.381-3.721-.391-1.387-1.338-2.305-2.842-2.754-1.211-.352-2.94-.527-5.186-.527-3.77 0-6.552.332-8.35.996-1.738.625-2.88 1.973-3.427 4.043-.39 1.426-.586 3.564-.586 6.416v12.832h-4.394v-27.803Zm32.11 18.106h4.687v.79c0 1.583.166 2.657.498 3.223.489.899 1.426 1.475 2.813 1.729 1.719.293 5.117.44 10.195.44 4.2 0 6.963-.108 8.291-.323 1.797-.293 2.95-.928 3.457-1.904.313-.567.469-1.28.469-2.139 0-1.309-.342-2.295-1.025-2.959-.567-.547-1.26-.889-2.08-1.025-1.153-.215-2.53-.313-4.131-.293-.997.02-5.264-.03-12.803-.147-2.695-.039-4.668-.303-5.918-.79-1.524-.606-2.598-1.534-3.223-2.784-.508-1.035-.762-2.383-.762-4.043 0-2.89.928-4.99 2.784-6.299 1.171-.82 3.222-1.367 6.152-1.64 1.973-.196 4.746-.294 8.32-.294 5.606 0 9.63.42 12.07 1.26 1.68.586 2.891 1.602 3.633 3.047.43.84.645 2.383.645 4.63h-4.63c-.019-1.7-.302-2.813-.849-3.34-.722-.723-2.217-1.202-4.482-1.436-1.895-.196-4.102-.293-6.621-.293-5.996 0-9.639.43-10.928 1.289-.937.605-1.406 1.65-1.406 3.135 0 1.172.283 2.011.85 2.52.43.41.966.673 1.61.79 1.563.274 3.497.39 5.802.352 3.261-.059 7.51.02 12.744.234 3.535.137 6.006 1.026 7.412 2.666 1.015 1.192 1.523 2.998 1.523 5.42 0 1.875-.293 3.33-.879 4.365a5.955 5.955 0 0 1-2.87 2.578c-1.934.86-6.436 1.29-13.507 1.29-4.726 0-8.213-.147-10.459-.44-2.363-.313-4.12-.967-5.273-1.963-.957-.84-1.572-1.846-1.846-3.018-.195-.898-.293-1.904-.293-3.017 0-.332.01-.87.03-1.611Z"/></svg>