<svg viewBox="0 0 800 260" xml:space="preserve" xmlns="http://www.w3.org/2000/svg"><defs><linearGradient id="b" x1="11.119" x2="787.7" y1="-25.027" y2="185.09" gradientTransform="scale(1 1.6211)" gradientUnits="userSpaceOnUse"><stop stop-color="#2ca0aa" offset=".2"/><stop stop-color="#2b9aa5" offset=".305"/><stop stop-color="#288999" offset=".444"/><stop stop-color="#256e85" offset=".6"/><stop stop-color="#1f496a" offset=".768"/><stop stop-color="#1b2751" offset=".899"/></linearGradient><linearGradient id="a" x1="800" x2="324.64" y1="260" gradientUnits="userSpaceOnUse"><stop stop-color="#fff" stop-opacity=".347" offset="0"/><stop stop-opacity=".104" offset="1"/></linearGradient><mask id="c" maskUnits="userSpaceOnUse"><rect x="324.64" width="475.36" height="260" rx=".1" ry=".1" fill="url(#a)" style="paint-order:stroke fill markers"/></mask></defs><path d="M0 0h800v260H0z" fill="url(#b)" data-name="Layer 1"/><path d="m68.597 84.792-.36 3.563h-5.94l-1.475 6.264h-3.816l1.513-6.263h-4.572l-1.476 6.263h-3.815l1.511-6.263h-4.643l.36-3.564h5.147l1.26-5.04h-5.507l.36-3.563h6.01L54.56 70.5h3.708l-1.405 5.688h4.644L62.91 70.5h3.707l-1.404 5.688h4.644l-.36 3.563h-5.111l-1.224 5.04h5.435zm-13.786 0h4.571l1.26-5.04h-4.607zm35.819-9.251c-1.404-.54-3.132-1.08-5.472-1.08-5.04 0-7.451 2.52-8.063 8.28-.54 5.326.792 7.918 6.191 7.918 2.34 0 4.571-.756 6.48-1.62l.287 3.96c-2.015 1.008-5.075 1.98-8.494 1.98-7.524 0-10.367-5.652-9.683-12.239.72-6.91 4.715-12.598 12.85-12.598 2.376 0 5.471.396 7.271 1.26L90.63 75.54zm12.709.719c5.039 0 8.17 2.7 7.523 9-.684 6.299-4.104 9.718-10.223 9.718-5.04 0-8.171-2.7-7.487-8.998.648-6.3 4.067-9.72 10.187-9.72zm-2.124 14.94c2.52 0 4.14-1.62 4.607-5.94.396-3.78-.54-5.22-3.06-5.22s-4.139 1.62-4.57 5.94c-.397 3.78.503 5.22 3.023 5.22zm17.495 3.419h-5.039l1.872-17.998h5.04l-.396 2.88h.18c1.62-2.412 3.851-3.24 5.903-3.24 2.268 0 3.923 1.08 4.5 3.6h.144c1.62-2.412 3.995-3.6 6.515-3.6 3.239 0 5.29 2.16 4.787 7.559l-1.044 10.799h-5.04l1.08-10.079c.36-3.42-.54-4.32-1.8-4.32-1.979 0-4.319 2.844-4.715 6.66l-.827 7.739h-5.04l1.08-10.079c.36-3.42-.54-4.32-1.8-4.32-1.98 0-4.103 2.844-4.535 6.66l-.864 7.739zm26.57 7.199 2.627-25.197h5.004l-.36 2.88h.18c1.619-2.412 4.103-3.24 6.155-3.24 3.6 0 5.543 3.6 5.04 8.999-.54 5.4-3.708 9.719-9.648 9.719-1.044 0-2.16-.108-3.24-.288l-.72 7.127h-5.039zm6.227-11.339c.9.396 1.98.54 2.699.54 2.34 0 4.248-1.62 4.68-5.58.36-3.419-.36-5.218-2.16-5.218-2.484 0-4.392 2.88-4.824 6.658zm28.078-13.858h5.04l-1.872 17.998h-5.04l.396-2.88h-.18c-1.62 2.412-3.851 3.24-5.903 3.24-3.24 0-5.111-1.8-4.607-7.2l1.008-11.158h5.04l-1.08 10.079c-.36 3.42.54 4.32 1.799 4.32 1.98 0 4.104-2.845 4.536-6.66zm20.088-1.8-2.051 19.798h-5.148l2.052-19.798h-7.055l.467-4.32h19.258l-.468 4.32zm22.177 18.754c-2.161.9-4.32 1.404-6.696 1.404-5.292 0-8.855-1.872-8.1-9.18.649-6.262 4.176-9.538 9.648-9.538s7.594 3.42 7.055 6.84c-.432 2.735-2.736 6.19-11.699 4.678-.216 2.628 1.728 3.24 4.248 3.24 1.475 0 3.78-.432 5.147-.9l.396 3.456zm-2.99-10.835c.216-1.44-.72-2.52-2.7-2.52-1.835 0-3.203 1.044-3.563 3.96 2.052.576 5.903.972 6.263-1.44zm23.22-1.44c-1.187-.54-3.31-1.08-5.29-1.08-3.42 0-4.86 1.8-5.256 5.76-.36 3.42.54 5.04 4.14 5.04 1.8 0 3.815-.36 5.327-.9l.144 3.779c-1.512.72-4.824 1.08-7.163 1.08-5.04 0-8.172-2.7-7.487-9 .647-6.298 4.067-9.718 10.187-9.718 1.799 0 5.003.36 6.335 1.26l-.936 3.78zM52.53 160.75l-7.236 18.36h-16.74l32.832-72.685h16.848l17.712 72.685h-16.74l-3.564-18.36zm20.412-11.88-5.076-24.409-10.044 24.41h15.12zm28.294 51.84 7.885-75.6h15.012l-1.08 8.64h.54c4.86-7.236 12.312-9.72 18.468-9.72 10.8 0 16.632 10.8 15.12 27-1.62 16.2-11.124 29.16-28.944 29.16-3.132 0-6.48-.324-9.72-.864l-2.16 21.385h-15.12zm18.685-34.02c2.7 1.188 5.94 1.62 8.1 1.62 7.02 0 12.744-4.86 14.04-16.74 1.08-10.26-1.08-15.66-6.48-15.66-7.452 0-13.176 8.64-14.472 19.98zm43.415 34.02 7.884-75.6h15.012l-1.08 8.64h.54c4.86-7.236 12.312-9.72 18.469-9.72 10.8 0 16.632 10.8 15.12 27-1.62 16.2-11.124 29.16-28.945 29.16-3.131 0-6.48-.324-9.72-.864l-2.16 21.385h-15.12zm18.684-34.02c2.7 1.188 5.94 1.62 8.1 1.62 7.02 0 12.745-4.86 14.04-16.74 1.08-10.26-1.08-15.66-6.48-15.66-7.452 0-13.176 8.64-14.472 19.98zm65.664-31.32h24.84l-1.404 12.96h-24.84l-1.836 17.82h31.644l-1.295 12.96h-47.09l7.56-72.361h46.657l-1.403 12.96h-31.213l-1.62 15.66zm55.188 43.74h-15.12l5.616-54h15.12l-1.187 8.64h.539c4.86-7.236 11.557-9.72 17.713-9.72 9.72 0 15.444 6.48 13.931 22.68l-3.131 32.4h-15.12l3.24-30.24c1.08-10.26-1.62-12.96-5.4-12.96-5.94 0-12.312 8.531-13.61 19.98l-2.59 23.22zm95.58-4.32c-1.944 18.9-13.068 27.001-28.188 27.001-7.02 0-16.633-1.08-20.737-3.24l2.808-11.34c4.104 1.62 9.936 2.7 15.337 2.7 10.8 0 14.364-4.32 15.336-11.88l.971-7.56h-.54c-4.859 7.235-12.311 9.72-18.467 9.72-10.801 0-16.633-10.8-15.12-27.002 1.62-16.199 11.123-29.16 28.944-29.16 8.64 0 19.656 2.7 24.408 4.32l-4.752 46.44zm-11.34-37.26c-2.7-1.188-5.94-1.62-8.1-1.62-7.02 0-12.744 4.86-14.04 16.74-1.08 10.26 1.08 15.66 6.48 15.66 7.451 0 13.176-8.64 14.472-19.98l1.187-10.8zm41.039 41.58h-15.12l5.616-54h15.12zm.432-76.68c4.752 0 8.208 3.887 7.668 8.64-.432 4.751-4.752 8.64-9.504 8.64s-8.208-3.889-7.776-8.64c.54-4.753 4.86-8.64 9.612-8.64zm29.807 76.68h-15.12l5.616-54h15.12l-1.188 8.64h.54c4.86-7.236 11.557-9.72 17.712-9.72 9.72 0 15.445 6.48 13.933 22.68l-3.132 32.4h-15.12l3.24-30.24c1.08-10.26-1.62-12.96-5.4-12.96-5.94 0-12.313 8.531-13.609 19.98l-2.591 23.22zm91.369-3.132c-6.48 2.7-12.961 4.212-20.09 4.212-15.875 0-26.567-5.616-24.299-27.54 1.943-18.793 12.528-28.62 28.944-28.62s22.789 10.26 21.168 20.52c-1.295 8.208-8.208 18.576-35.1 14.04-.648 7.885 5.184 9.72 12.744 9.72 4.429 0 11.34-1.296 15.444-2.7zm-8.965-32.508c.648-4.32-2.16-7.56-8.1-7.56-5.507 0-9.612 3.131-10.692 11.88 6.156 1.728 17.712 2.916 18.792-4.32z" style="fill:#fff"/><g fill="none" mask="url(#c)" stroke="#fff" stroke-linecap="round" stroke-linejoin="round" stroke-miterlimit="28.7"><g stroke-width="1.856"><path d="m640.66 108.15 11.095-19.218h22.191l11.095 19.218-11.095 19.218h-22.191zM726.41 108.15l11.095-19.218h22.191l11.095 19.218-11.095 19.218h-22.191zM769.23 182.62l11.095-19.218h22.191l11.095 19.218-11.095 19.218h-22.191zM597.47 182.62l11.095-19.218h22.191l11.095 19.218-11.095 19.218h-22.191zM640.27 256.9l11.095-19.218h22.191l11.095 19.218-11.095 19.218h-22.191zM726 257.12l11.095-19.218h22.191l11.095 19.218-11.095 19.218h-22.191z" style="paint-order:stroke fill markers"/></g><path d="m676.23 182.4 14.657-25.387h29.315l14.656 25.387-14.656 25.387h-29.315z" stroke-width="2.452" style="paint-order:stroke fill markers"/><g stroke-width="1.856"><path d="m468.58 107.18 11.095-19.218h22.191l11.095 19.218-11.095 19.218h-22.191zM554.32 107.18l11.095-19.218h22.191l11.095 19.218-11.095 19.218h-22.191zM425.39 181.65l11.095-19.218h22.191l11.095 19.218-11.095 19.218h-22.191zM468.19 255.93l11.095-19.218h22.191l11.095 19.218-11.095 19.218h-22.191zM553.92 256.15l11.095-19.218h22.191l11.095 19.218-11.095 19.218h-22.191z" style="paint-order:stroke fill markers"/></g><path d="m504.14 181.42 14.657-25.387h29.315l14.656 25.387-14.656 25.387h-29.315z" stroke-width="2.452" style="paint-order:stroke fill markers"/><g stroke-width="1.856"><path d="m340.77 181.65 11.095-19.218h22.191l11.095 19.218-11.095 19.218h-22.191zM426.59 33.329l11.095-19.218h22.191l11.095 19.218-11.095 19.218h-22.191zM598.02 33.467l11.095-19.218h22.191l11.095 19.218-11.095 19.218h-22.191z" style="paint-order:stroke fill markers"/></g><g stroke-width="1.856"><path d="m734.85 182.4 34.372.22M720.2 207.78l16.898 30.119M690.88 207.78l-17.324 29.896M676.23 182.4l-34.372.22M720.2 157.01l17.306-29.64M690.88 157.01l-16.932-29.64M597.47 182.62l-34.702-1.193M565.01 236.93l-16.898-30.119M518.8 206.81l-17.324 29.896M504.14 181.42l-34.372.22M425.39 181.65h-40.234M518.8 156.04l-16.932-29.64M548.11 156.04l17.306-29.64M587.61 87.963l21.504-35.278M479.68 87.963l-19.802-35.416" style="paint-order:stroke fill markers"/></g></g></svg>