<?xml version="1.0" encoding="UTF-8"?>
<svg id="Layer_1" data-name="Layer 1" xmlns="http://www.w3.org/2000/svg" viewBox="0 0 536.2817 144.0298">
  <defs>
    <style>
      .cls-1 {
        fill: #ed1c24;
      }

      .cls-2 {
        fill: #1565b1;
      }
    </style>
  </defs>
  <g>
    <path d="M25.8984,16.7773h8.125c.0518,1.3022.0781,2.1421.0781,2.5195,0,2.0576-.3062,3.6655-.918,4.8242-.6772,1.3022-1.999,2.1875-3.9648,2.6562-1.9663.4688-5.3647.7031-10.1953.7031-5.0781,0-8.6948-.0977-10.8496-.293-2.1553-.1953-3.7793-.5728-4.873-1.1328-.9766-.5078-1.7061-1.1914-2.1875-2.0508-.4819-.8594-.7944-2.0376-.9375-3.5352-.1172-1.2109-.1758-3.3984-.1758-6.5625,0-3.0859.0586-5.3125.1758-6.6797s.3447-2.4282.6836-3.1836C1.6016,2.3506,3.1055,1.2534,5.3711.752c2.2656-.501,6.8359-.752,13.7109-.752,3.4375,0,5.9375.0781,7.5.2344s2.8057.4492,3.7305.8789c1.2109.5732,2.0635,1.4229,2.5586,2.5488.4946,1.1265.7422,2.7832.7422,4.9707,0,.1172-.0068.5601-.0195,1.3281h-8.125c-.0391-.8853-.0947-1.4775-.166-1.7773-.0718-.2993-.2183-.5469-.4395-.7422-.3125-.2734-1.1006-.4717-2.3633-.5957-1.2632-.1235-3.1772-.1855-5.7422-.1855-2.5391,0-4.2969.0557-5.2734.166-.9766.1108-1.667.3291-2.0703.6543-.4819.3906-.8174,1.0483-1.0059,1.9727-.189.9248-.2832,2.396-.2832,4.4141s.0845,3.4409.2539,4.2676c.1689.8271.4946,1.4229.9766,1.7871.4556.3516,1.1816.5859,2.1777.7031s2.7568.1758,5.2832.1758c3.1118,0,5.1855-.0518,6.2207-.1562,1.0352-.104,1.7349-.332,2.0996-.6836.4814-.4556.7354-1.5166.7617-3.1836Z"/>
    <path d="M49.5117,7.6562c3.2158,0,5.6216.127,7.2168.3809,1.5947.2539,2.8418.7065,3.7402,1.3574.9375.6772,1.5752,1.5625,1.9141,2.6562.3384,1.0938.5078,2.8257.5078,5.1953,0,1.7578-.0488,3.0762-.1465,3.9551s-.2769,1.6699-.5371,2.373c-.6772,1.771-2.0508,2.8975-4.1211,3.3789-1.7188.4033-4.5703.6055-8.5547.6055-3.5288,0-6.0547-.127-7.5781-.3809s-2.7412-.7583-3.6523-1.5137c-.8726-.7158-1.4551-1.6533-1.748-2.8125-.293-1.1587-.4395-3.1118-.4395-5.8594,0-1.5625.0615-2.7505.1855-3.5645.1235-.8135.3613-1.5591.7129-2.2363.7158-1.3799,1.9268-2.311,3.6328-2.793,1.7056-.4814,4.6611-.729,8.8672-.7422ZM49.5703,12.9883c-2.3438,0-3.9258.1826-4.7461.5469-.5991.2734-1.0225.7295-1.2695,1.3672-.2476.6382-.3711,1.582-.3711,2.832,0,1.2373.104,2.1226.3125,2.6562.208.5342.6055.9375,1.1914,1.2109.8984.417,2.5195.625,4.8633.625,2.6821,0,4.3975-.2798,5.1465-.8398.7485-.5596,1.123-1.8359,1.123-3.8281,0-1.25-.1172-2.1611-.3516-2.7344-.2344-.5728-.6577-.9893-1.2695-1.25-.8984-.3906-2.4414-.5859-4.6289-.5859Z"/>
    <path d="M65.5664,8.1445h6.6602v2.832h.3516c1.0156-2.2134,3.5742-3.3203,7.6758-3.3203,2.2783,0,4.0884.3096,5.4297.9277,1.3408.6187,2.3955,1.6309,3.1641,3.0371.5728-1.4062,1.4941-2.4185,2.7637-3.0371,1.2695-.6182,3.0693-.9277,5.4004-.9277,1.9531,0,3.5513.1924,4.7949.5762,1.2432.3843,2.2686,1.0059,3.0762,1.8652.8071.8467,1.3408,1.8003,1.6016,2.8613.2603,1.0615.3906,2.8159.3906,5.2637v8.8477h-7.0703v-8.8477c0-1.3799-.0522-2.3438-.1562-2.8906-.1045-.5469-.3193-.9829-.6445-1.3086-.6904-.6899-2.0186-1.0352-3.9844-1.0352-2.0703,0-3.4702.3975-4.1992,1.1914-.4038.4429-.6807,1.0156-.8301,1.7188-.1499.7031-.2246,1.8232-.2246,3.3594v7.8125h-7.0703v-8.8477c0-1.4712-.0425-2.4512-.127-2.9395-.085-.4883-.29-.9014-.6152-1.2402-.6514-.7031-1.96-1.0547-3.9258-1.0547-2.1226,0-3.5679.3843-4.3359,1.1523-.4038.417-.6807.9834-.8301,1.6992-.1499.7163-.2246,1.8555-.2246,3.418v7.8125h-7.0703V8.1445Z"/>
    <path d="M109.9023,34.9414V8.1445h6.6602v2.5586h.3906c.5986-1.1719,1.5137-1.9727,2.7441-2.4023s3.2061-.6445,5.9277-.6445c2.4346,0,4.3423.1597,5.7227.4785,1.3799.3193,2.4736.8496,3.2812,1.5918.7549.6904,1.2695,1.5918,1.543,2.7051s.4102,2.8682.4102,5.2637c0,1.6016-.062,2.8516-.1855,3.75-.124.8984-.3418,1.7188-.6543,2.4609-.5859,1.3804-1.6343,2.334-3.1445,2.8613-1.5107.5273-3.939.791-7.2852.791-2.4092,0-4.1733-.2051-5.293-.6152-1.1201-.4102-2.0249-1.1816-2.7148-2.3145h-.332v10.3125h-7.0703ZM123.4961,12.9883c-2.9688,0-4.7983.2998-5.4883.8984-.6904.5991-1.0352,1.9077-1.0352,3.9258,0,1.0811.0977,1.8979.293,2.4512.1953.5537.5337.9668,1.0156,1.2402.8203.4819,2.4868.7227,5,.7227,2.604,0,4.2969-.2603,5.0781-.7812.4424-.2993.7451-.7451.9082-1.3379.1626-.5923.2441-1.52.2441-2.7832,0-1.1587-.0977-1.9922-.293-2.5s-.5664-.9048-1.1133-1.1914c-.8076-.4165-2.3438-.6313-4.6094-.6445Z"/>
    <path d="M164.7461,27.0703h-6.6602v-2.832h-.3516c-.5601,1.2109-1.4521,2.0674-2.6758,2.5684-1.2241.501-3.0342.752-5.4297.752-2.1875,0-3.9258-.1826-5.2148-.5469s-2.3569-.9766-3.2031-1.8359c-.8594-.8853-1.4229-1.8584-1.6895-2.9199-.2671-1.061-.4004-2.8809-.4004-5.459v-8.6523h7.0703v8.6523c0,1.3804.0649,2.3633.1953,2.9492.1299.5859.3906,1.0679.7812,1.4453.4033.3906.9307.6611,1.582.8105.6509.1499,1.6533.2246,3.0078.2246,2.2915,0,3.8477-.3516,4.668-1.0547.5078-.4424.8428-1.0122,1.0059-1.709.1626-.6963.2441-1.9302.2441-3.7012v-7.6172h7.0703v18.9258Z"/>
    <path d="M166.3477.4102h32.2656v6.7969h-11.8555v19.8633h-8.5352V7.207h-11.875V.4102Z"/>
    <path d="M212.9297,21.0156h7.0508c-.1953,2.0576-.8203,3.5352-1.875,4.4336-.9116.7944-2.2007,1.3447-3.8672,1.6504-1.667.3057-4.167.459-7.5.459-2.7476,0-4.8569-.1338-6.3281-.4004-1.4717-.2666-2.6367-.7256-3.4961-1.377-.9116-.6899-1.5366-1.6113-1.875-2.7637-.3389-1.1523-.5078-2.9263-.5078-5.3223,0-1.7969.0649-3.1475.1953-4.0527.1299-.9048.3774-1.7217.7422-2.4512.7549-1.5103,2.1221-2.4932,4.1016-2.9492,1.6924-.3906,4.3228-.5859,7.8906-.5859,3.1509,0,5.3711.1108,6.6602.332,2.2915.3906,3.8672,1.2471,4.7266,2.5684.8594,1.3218,1.2891,3.5449,1.2891,6.6699,0,.2998-.0132.9375-.0391,1.9141h-18.4961c0,.9639.0615,1.6538.1855,2.0703.1235.417.3677.7617.7324,1.0352.7031.521,2.2915.7812,4.7656.7812,1.5752,0,2.7568-.0615,3.5449-.1855.7876-.1235,1.3247-.3286,1.6113-.6152.2344-.2344.397-.6377.4883-1.2109ZM213.0273,15.2734c-.0264-.7422-.0752-1.2529-.1465-1.5332-.0718-.2798-.2119-.5303-.4199-.752-.6123-.625-2.2461-.9375-4.9023-.9375-2.3828,0-3.9585.2085-4.7266.625-.7686.417-1.1787,1.2827-1.2305,2.5977h11.4258Z"/>
    <path d="M240.957,19.4727h7.207c-.0654,1.5757-.2246,2.7769-.4785,3.6035-.2539.8271-.687,1.5527-1.2988,2.1777-.9116.9248-2.1357,1.54-3.6719,1.8457-1.5366.3057-4.1602.459-7.8711.459-2.917,0-5.1011-.124-6.5527-.3711-1.4521-.2471-2.6533-.7031-3.6035-1.3672-.9116-.6509-1.543-1.5786-1.8945-2.7832-.3516-1.2041-.5273-3.0566-.5273-5.5566,0-2.2783.1626-3.9971.4883-5.1562.3252-1.1587.9048-2.0767,1.7383-2.7539.9111-.729,2.1221-1.2305,3.6328-1.5039,1.5103-.2734,3.8672-.4102,7.0703-.4102,3.1377,0,5.5044.1436,7.0996.4297,1.5947.2866,2.8418.7881,3.7402,1.5039.7549.6123,1.2856,1.3643,1.5918,2.2559.3057.8921.4912,2.2236.5566,3.9941h-7.207c-.1172-1.0806-.5957-1.8262-1.4355-2.2363s-2.2949-.6152-4.3652-.6152c-2.0967,0-3.5615.1953-4.3945.5859-.521.2607-.8921.7065-1.1133,1.3379-.2217.6318-.332,1.5659-.332,2.8027,0,1.2109.1172,2.103.3516,2.6758.2344.5732.6509.9897,1.25,1.25.8853.3906,2.3306.5859,4.3359.5859,2.083,0,3.5122-.1885,4.2871-.5664.7744-.3774,1.2402-1.1064,1.3965-2.1875Z"/>
  </g>
  <g>
    <path class="cls-2" d="M.0767,40.436h25.0522l21.6255,59.8828h4.5498l18.2573-59.8828h29.6611l18.376,59.8828h4.6084l21.7437-59.8828h26.0571l-31.3745,79.9805h-37.9336l-16.1895-58.6523-16.0122,58.6523H30.4468L.0767,40.436Z"/>
    <path class="cls-2" d="M222.1807,102.2524h21.3301c-.5908,6.1724-2.4814,10.6055-5.6724,13.3008-2.7578,2.3833-6.6572,4.0337-11.6987,4.9512-5.043.9175-12.606,1.377-22.6895,1.377-8.3115,0-14.6929-.4009-19.1436-1.2012-4.4517-.8003-7.9766-2.1772-10.5767-4.1309-2.7573-2.0698-4.6484-4.834-5.6719-8.291-1.0249-3.457-1.5366-8.7788-1.5366-15.9668,0-5.3906.1968-9.4429.5913-12.1582.3931-2.7144,1.1416-5.1655,2.2451-7.3535,2.2842-4.5308,6.4199-7.48,12.4082-8.8477,5.1201-1.1719,13.0771-1.7578,23.8706-1.7578,9.5322,0,16.2485.3325,20.1479.9961,6.9326,1.1719,11.6992,3.7407,14.2988,7.7051,2.6001,3.9653,3.8999,10.6348,3.8999,20.0098,0,.8989-.0396,2.8125-.1182,5.7422h-55.9546c0,2.8911.1865,4.9614.5615,6.2109.374,1.2505,1.1123,2.2852,2.2158,3.1055,2.127,1.563,6.9321,2.3438,14.417,2.3438,4.7656,0,8.3403-.1851,10.7241-.5566,2.3828-.3706,4.0073-.9858,4.8745-1.8457.709-.7031,1.2012-1.9136,1.4771-3.6328ZM222.4761,85.0259c-.0796-2.2266-.2271-3.7593-.4434-4.5996-.2168-.8394-.6406-1.5913-1.27-2.2559-1.8521-1.875-6.7949-2.8125-14.8306-2.8125-7.2085,0-11.9751.6255-14.2988,1.875-2.3247,1.2505-3.5654,3.8481-3.7227,7.793h34.5654Z"/>
    <path class="cls-2" d="M252.019,40.436h21.3892v30.8203h.9453c2.1655-3.5156,4.9233-5.9077,8.272-7.1777,3.3477-1.269,8.5869-1.9043,15.7168-1.9043,7.0508,0,12.7129.4102,16.9873,1.2305,4.2734.8203,7.6514,2.168,10.1333,4.043,2.7964,2.0708,4.7065,4.8247,5.731,8.2617,1.0239,3.438,1.5366,8.8286,1.5366,16.1719,0,4.7661-.1479,8.4082-.4434,10.9277s-.8569,4.854-1.6841,7.002c-1.6543,4.4531-4.8447,7.5786-9.5718,9.375s-12.0933,2.6953-22.0981,2.6953-16.8984-1.1333-20.6802-3.3984c-1.6938-1.0151-3.3291-2.8511-4.9038-5.5078h-1.1821v7.4414h-20.1479V40.436ZM292.4927,78.1704c-7.3662,0-12.3101.6646-14.8306,1.9922-1.6157.8599-2.728,2.168-3.3384,3.9258-.6113,1.7578-.9155,4.4927-.9155,8.2031,0,3.9844.3638,6.8071,1.0928,8.4668.7285,1.6606,2.1362,2.8418,4.2246,3.5449,2.9146,1.0547,7.6221,1.582,14.1216,1.582,7.5234,0,12.5264-.7808,15.0078-2.3438,1.2998-.8203,2.2056-2.1284,2.7183-3.9258.5112-1.7964.7681-4.4917.7681-8.0859,0-3.75-.3452-6.4453-1.0342-8.0859-.6895-1.6406-1.9795-2.8315-3.8701-3.5742-2.8359-1.1323-7.4844-1.6992-13.9443-1.6992Z"/>
    <path class="cls-1" d="M341.1797,40.436h24.5796v36.7383c.1182,8.4375.4136,13.7695.8862,15.9961.6299,3.1255,2.668,5.1763,6.1152,6.1523,3.4468.9771,10.4087,1.4648,20.8872,1.4648,8.5083,0,14.4067-.2437,17.6963-.7324,3.2886-.4878,5.6221-1.4546,7.0015-2.9004.9058-1.0151,1.5454-2.2456,1.9204-3.6914.374-1.4448.6592-3.9258.8569-7.4414.1963-3.5933.2954-6.5425.2954-8.8477v-36.7383h24.5796v36.7383c-.2759,12.7734-.6895,21.1333-1.2407,25.0781-.9854,6.7192-4.2153,11.6411-9.6904,14.7656-3.1118,1.7974-7.5039,3.0083-13.1758,3.6328-5.6724.6245-14.9888.9375-27.9478.9375-9.73,0-17.2339-.1758-22.5117-.5273-5.2793-.3516-9.8677-.9761-13.7671-1.875-8.6265-2.0308-13.6694-7.187-15.126-15.4688-.5522-3.1641-.8965-6.0352-1.0342-8.6133-.1382-2.5781-.2466-8.5547-.3247-17.9297v-36.7383Z"/>
    <path class="cls-1" d="M455.5703,144.0298V63.6392h20.1479v7.6758h1.1821c1.811-3.5156,4.5791-5.918,8.3013-7.207,3.7227-1.2891,9.6992-1.9336,17.9326-1.9336,7.3652,0,13.1367.479,17.312,1.4355,4.1748.9575,7.4839,2.5488,9.9268,4.7754,2.2837,2.0708,3.8403,4.7754,4.6675,8.1152.8276,3.3398,1.2412,8.604,1.2412,15.791,0,4.8047-.1875,8.5547-.5615,11.25-.375,2.6953-1.0342,5.1562-1.9795,7.3828-1.7725,4.1411-4.9438,7.002-9.5127,8.584-4.5698,1.582-11.916,2.373-22.0391,2.373-7.2881,0-12.625-.6152-16.0122-1.8457-3.3882-1.2305-6.1255-3.5449-8.2129-6.9434h-1.0044v30.9375h-21.3892ZM496.6938,78.1704c-8.981,0-14.5156.8989-16.603,2.6953-2.0884,1.7974-3.1313,5.7231-3.1313,11.7773,0,3.2427.2954,5.6938.8862,7.3535.5908,1.6606,1.6147,2.9004,3.0723,3.7207,2.4814,1.4458,7.5234,2.168,15.126,2.168,7.8779,0,12.999-.7808,15.3623-2.3438,1.3389-.8979,2.2544-2.2358,2.7476-4.0137.4922-1.7769.7388-4.5601.7388-8.3496,0-3.4761-.2954-5.9766-.8862-7.5-.5913-1.5234-1.7139-2.7144-3.3682-3.5742-2.4429-1.2495-7.0903-1.894-13.9443-1.9336Z"/>
  </g>
</svg>