<svg viewBox="0 0 800 260" xml:space="preserve" xmlns="http://www.w3.org/2000/svg"><defs><linearGradient id="c" x1="800" x2="324.64" y1="260" gradientUnits="userSpaceOnUse"><stop stop-color="#fff" stop-opacity=".347" offset="0"/><stop stop-opacity=".104" offset="1"/></linearGradient><linearGradient id="b" x1="11.119" x2="787.7" y1="-25.027" y2="185.09" gradientTransform="scale(1 1.6211)" gradientUnits="userSpaceOnUse"><stop stop-color="#e6571c" offset=".2"/><stop stop-color="#e0551d" offset=".277"/><stop stop-color="#cf5121" offset=".377"/><stop stop-color="#b44b28" offset=".491"/><stop stop-color="#8e4232" offset=".615"/><stop stop-color="#5e363f" offset=".746"/><stop stop-color="#23294e" offset=".882"/><stop stop-color="#1b2751" offset=".901"/></linearGradient><style>.cls-3{fill:#fff}</style><mask id="a" maskUnits="userSpaceOnUse"><rect x="324.64" width="475.36" height="260" rx=".1" ry=".1" fill="url(#c)" style="paint-order:stroke fill markers"/></mask></defs><path d="M0 0h800v260H0z" fill="url(#b)" data-name="Layer 1"/><path class="cls-3" d="m68.011 84.792-.36 3.563h-5.94l-1.475 6.264H56.42l1.513-6.263h-4.572l-1.476 6.263H48.07l1.511-6.263h-4.643l.36-3.564h5.147l1.26-5.04h-5.507l.36-3.563h6.01l1.406-5.689h3.708l-1.405 5.688h4.644l1.403-5.688h3.707l-1.404 5.688h4.644l-.36 3.563H63.8l-1.224 5.04h5.435zm-13.786 0h4.571l1.26-5.04h-4.607zm35.819-9.251c-1.404-.54-3.132-1.08-5.472-1.08-5.04 0-7.451 2.52-8.063 8.28-.54 5.326.792 7.918 6.191 7.918 2.34 0 4.571-.756 6.48-1.62l.287 3.96c-2.015 1.008-5.075 1.98-8.494 1.98-7.524 0-10.367-5.652-9.683-12.239.72-6.91 4.715-12.598 12.85-12.598 2.376 0 5.471.396 7.271 1.26l-1.367 4.138zm12.709.719c5.039 0 8.17 2.7 7.523 9-.684 6.299-4.104 9.718-10.223 9.718-5.04 0-8.171-2.7-7.487-8.998.648-6.3 4.067-9.72 10.187-9.72zm-2.124 14.94c2.52 0 4.14-1.62 4.607-5.94.396-3.78-.54-5.22-3.06-5.22s-4.139 1.62-4.57 5.94c-.397 3.78.503 5.22 3.023 5.22zm17.495 3.419h-5.039l1.872-17.998h5.04l-.396 2.88h.18c1.62-2.412 3.851-3.24 5.903-3.24 2.268 0 3.923 1.08 4.5 3.6h.144c1.62-2.412 3.995-3.6 6.515-3.6 3.239 0 5.29 2.16 4.787 7.559l-1.044 10.799h-5.04l1.08-10.079c.36-3.42-.54-4.32-1.8-4.32-1.979 0-4.319 2.844-4.715 6.66l-.827 7.739h-5.04l1.08-10.079c.36-3.42-.54-4.32-1.8-4.32-1.98 0-4.103 2.844-4.535 6.66l-.864 7.739zm26.57 7.199 2.627-25.197h5.004l-.36 2.88h.18c1.619-2.412 4.103-3.24 6.155-3.24 3.6 0 5.543 3.6 5.04 8.999-.54 5.4-3.708 9.719-9.648 9.719-1.044 0-2.16-.108-3.24-.288l-.72 7.127h-5.039zm6.227-11.339c.9.396 1.98.54 2.699.54 2.34 0 4.248-1.62 4.68-5.58.36-3.419-.36-5.218-2.16-5.218-2.484 0-4.392 2.88-4.824 6.658zm28.078-13.858h5.04l-1.872 17.998h-5.04l.396-2.88h-.18c-1.62 2.412-3.851 3.24-5.903 3.24-3.24 0-5.111-1.8-4.607-7.2l1.008-11.158h5.04l-1.08 10.079c-.36 3.42.54 4.32 1.799 4.32 1.98 0 4.104-2.845 4.536-6.66zm20.088-1.8-2.051 19.798h-5.148l2.052-19.798h-7.055l.467-4.32h19.258l-.468 4.32zm22.177 18.754c-2.161.9-4.32 1.404-6.696 1.404-5.292 0-8.855-1.872-8.1-9.18.649-6.262 4.176-9.538 9.648-9.538s7.594 3.42 7.055 6.84c-.432 2.735-2.736 6.19-11.699 4.678-.216 2.628 1.728 3.24 4.248 3.24 1.475 0 3.78-.432 5.147-.9l.396 3.456zm-2.99-10.835c.216-1.44-.72-2.52-2.7-2.52-1.835 0-3.203 1.044-3.563 3.96 2.052.576 5.903.972 6.263-1.44zm23.22-1.44c-1.187-.54-3.31-1.08-5.29-1.08-3.42 0-4.86 1.8-5.256 5.76-.36 3.42.54 5.04 4.14 5.04 1.8 0 3.815-.36 5.327-.9l.144 3.779c-1.512.72-4.824 1.08-7.163 1.08-5.04 0-8.172-2.7-7.487-9 .647-6.298 4.067-9.718 10.187-9.718 1.799 0 5.003.36 6.335 1.26l-.936 3.78zm-185.99 54.07h24.84l-1.404 12.96H54.1l-3.132 30.78H35.523l7.56-72.361H89.74l-1.404 12.96H57.124l-1.62 15.66zm47.736 43.74H88.12l5.616-54h15.12zm.432-76.68c4.752 0 8.208 3.887 7.668 8.64-.432 4.751-4.752 8.64-9.504 8.64s-8.208-3.889-7.777-8.64c.54-4.753 4.86-8.64 9.613-8.64zm13.823 62.64c4.32 1.62 11.557 3.24 17.064 3.24 5.4 0 9.289-1.08 9.613-4.32.432-4.32-4.104-5.4-9.613-6.912-8.856-2.16-16.416-7.129-15.335-17.28 1.188-11.664 9.72-15.769 23.22-15.769 5.4 0 13.284 1.62 18.036 3.24l-3.564 11.881c-5.832-2.16-11.448-3.24-14.797-3.24-5.292 0-7.56 1.62-7.775 3.78-.325 3.24 3.023 4.212 9.072 5.831 8.856 2.377 17.172 5.94 15.984 17.39-1.296 12.095-12.096 17.28-26.136 17.28-4.86 0-14.365-1.08-19.009-3.24l3.24-11.88zm97.848-25.92c-3.564-1.62-9.936-3.24-15.876-3.24-10.26 0-14.58 5.4-15.769 17.28-1.08 10.26 1.62 15.12 12.42 15.12 5.4 0 11.449-1.08 15.985-2.7l.432 11.34c-4.536 2.16-14.473 3.24-21.493 3.24-15.12 0-24.516-8.1-22.464-27 1.944-18.901 12.204-29.16 30.564-29.16 5.4 0 15.013 1.08 19.009 3.78l-2.809 11.34zm54.755 39.96h-15.12l1.188-8.64h-.54c-4.86 7.236-12.312 9.72-18.468 9.72-10.8 0-16.632-10.8-15.12-27 1.62-16.2 11.124-29.16 28.944-29.16 8.64 0 19.656 2.7 24.408 4.32zm-10.8-41.58c-2.7-1.188-5.94-1.62-8.1-1.62-7.02 0-12.744 4.86-14.04 16.74-1.08 10.26 1.08 15.66 6.48 15.66 7.452 0 13.176-8.64 14.472-19.98zm41.04 41.58h-15.12l7.883-75.6 15.229-1.08zm16.739-16.416c6.805 2.916 14.688 4.536 21.169 4.536 6.696 0 10.8-3.24 11.34-7.884.54-5.077-3.24-7.884-10.26-10.476-11.988-4.32-22.572-8.1-21.06-22.68 1.404-14.04 14.795-20.521 29.268-20.521 7.992 0 15.552 1.944 20.628 3.996l-4.536 13.068c-6.155-2.916-13.392-4.104-17.388-4.104-6.48 0-11.232 2.376-11.772 7.56-.54 5.077 5.184 7.56 12.096 9.721 12.636 3.996 20.304 10.8 19.117 22.356-1.405 13.284-12.961 21.924-27.649 21.924-9.72 0-19.873-2.268-25.38-5.292zm101.63 13.284c-6.48 2.7-12.961 4.212-20.089 4.212-15.876 0-26.568-5.616-24.3-27.54 1.944-18.793 12.527-28.62 28.944-28.62s22.789 10.26 21.168 20.52c-1.295 8.208-8.208 18.576-35.1 14.04-.648 7.885 5.184 9.72 12.744 9.72 4.429 0 11.34-1.296 15.444-2.7zm-8.965-32.508c.648-4.32-2.16-7.56-8.1-7.56-5.507 0-9.612 3.131-10.692 11.88 6.156 1.728 17.712 2.916 18.792-4.32zm39.096 35.64h-15.12l5.615-54h15.121l-1.188 8.64h.54c4.86-7.236 12.635-9.72 18.792-9.72l-1.296 13.5c-14.905-1.08-18.577 6.911-19.872 18.36z" fill="#fff"/><path class="cls-3" d="M496.58 163.45c8.64-13.177 12.96-26.784 14.903-38.34H527.9c-2.376 14.58-13.716 38.773-25.38 54.54h-16.525l-13.716-54.54h16.2zm78.948 12.528c-6.481 2.7-12.961 4.212-20.09 4.212-15.875 0-26.568-5.616-24.3-27.54 1.944-18.793 12.528-28.62 28.945-28.62s22.788 10.26 21.168 20.52c-1.296 8.208-8.208 18.576-35.1 14.04-.648 7.885 5.184 9.72 12.744 9.72 4.428 0 11.34-1.296 15.444-2.7l1.188 10.368zm-8.965-32.508c.648-4.32-2.16-7.56-8.1-7.56-5.508 0-9.612 3.131-10.692 11.88 6.156 1.728 17.712 2.916 18.792-4.32zm39.095 35.64h-15.12l5.615-54h15.121l-1.188 8.64h.54c4.86-7.236 12.636-9.72 18.792-9.72l-1.296 13.5c-14.904-1.08-18.576 6.911-19.872 18.36z" fill="#fff"/><g fill="none" mask="url(#a)" stroke="#fff" stroke-linecap="round" stroke-linejoin="round" stroke-miterlimit="28.7"><g stroke-width="1.856"><path d="m640.66 108.15 11.095-19.218h22.191l11.095 19.218-11.095 19.218h-22.191zM726.41 108.15l11.095-19.218h22.191l11.095 19.218-11.095 19.218h-22.191zM769.23 182.62l11.095-19.218h22.191l11.095 19.218-11.095 19.218h-22.191zM597.47 182.62l11.095-19.218h22.191l11.095 19.218-11.095 19.218h-22.191zM640.27 256.9l11.095-19.218h22.191l11.095 19.218-11.095 19.218h-22.191zM726 257.12l11.095-19.218h22.191l11.095 19.218-11.095 19.218h-22.191z" style="paint-order:stroke fill markers"/></g><path d="m676.23 182.4 14.657-25.387h29.315l14.656 25.387-14.656 25.387h-29.315z" stroke-width="2.452" style="paint-order:stroke fill markers"/><g stroke-width="1.856"><path d="m468.58 107.18 11.095-19.218h22.191l11.095 19.218-11.095 19.218h-22.191zM554.32 107.18l11.095-19.218h22.191l11.095 19.218-11.095 19.218h-22.191zM425.39 181.65l11.095-19.218h22.191l11.095 19.218-11.095 19.218h-22.191zM468.19 255.93l11.095-19.218h22.191l11.095 19.218-11.095 19.218h-22.191zM553.92 256.15l11.095-19.218h22.191l11.095 19.218-11.095 19.218h-22.191z" style="paint-order:stroke fill markers"/></g><path d="m504.14 181.42 14.657-25.387h29.315l14.656 25.387-14.656 25.387h-29.315z" stroke-width="2.452" style="paint-order:stroke fill markers"/><g stroke-width="1.856"><path d="m340.77 181.65 11.095-19.218h22.191l11.095 19.218-11.095 19.218h-22.191zM426.59 33.329l11.095-19.218h22.191l11.095 19.218-11.095 19.218h-22.191zM598.02 33.467l11.095-19.218h22.191l11.095 19.218-11.095 19.218h-22.191z" style="paint-order:stroke fill markers"/></g><g stroke-width="1.856"><path d="m734.85 182.4 34.372.22M720.2 207.78l16.898 30.119M690.88 207.78l-17.324 29.896M676.23 182.4l-34.372.22M720.2 157.01l17.306-29.64M690.88 157.01l-16.932-29.64M597.47 182.62l-34.702-1.193M565.01 236.93l-16.898-30.119M518.8 206.81l-17.324 29.896M504.14 181.42l-34.372.22M425.39 181.65h-40.234M518.8 156.04l-16.932-29.64M548.11 156.04l17.306-29.64M587.61 87.963l21.504-35.278M479.68 87.963l-19.802-35.416" style="paint-order:stroke fill markers"/></g></g></svg>