<svg viewBox="0 0 800 260" xml:space="preserve" xmlns="http://www.w3.org/2000/svg"><defs><linearGradient id="a" x1="800" x2="324.64" y1="260" gradientUnits="userSpaceOnUse"><stop stop-color="#fff" stop-opacity=".347" offset="0"/><stop stop-opacity=".104" offset="1"/></linearGradient><linearGradient id="b" x1="11.119" x2="787.7" y1="-25.027" y2="185.09" gradientTransform="matrix(1 0 0 1.6211 0 0)" gradientUnits="userSpaceOnUse"><stop stop-color="#c30563" offset=".2"/><stop stop-color="#bd0560" offset=".317"/><stop stop-color="#ac0558" offset=".47"/><stop stop-color="#91064b" offset=".643"/><stop stop-color="#6c0839" offset=".829"/><stop stop-color="#5c0932" offset=".9"/></linearGradient><mask id="c" maskUnits="userSpaceOnUse"><rect x="324.64" width="475.36" height="260" rx=".1" ry=".1" fill="url(#a)" style="paint-order:stroke fill markers"/></mask></defs><path d="M0 0h800v260H0z" fill="url(#b)" data-name="Layer 1"/><path d="m68.011 84.792-.36 3.563h-5.94l-1.475 6.264H56.42l1.513-6.263h-4.572l-1.476 6.263H48.07l1.511-6.263h-4.643l.36-3.564h5.147l1.26-5.04h-5.507l.36-3.563h6.01l1.406-5.689h3.708l-1.405 5.688h4.644l1.403-5.688h3.707l-1.404 5.688h4.644l-.36 3.563H63.8l-1.224 5.04h5.435zm-13.786 0h4.571l1.26-5.04h-4.607zm35.819-9.251c-1.404-.54-3.132-1.08-5.472-1.08-5.04 0-7.451 2.52-8.063 8.28-.54 5.326.792 7.918 6.191 7.918 2.34 0 4.571-.756 6.48-1.62l.287 3.96c-2.015 1.008-5.075 1.98-8.494 1.98-7.524 0-10.367-5.652-9.683-12.239.72-6.91 4.715-12.598 12.85-12.598 2.376 0 5.471.396 7.271 1.26l-1.367 4.138zm12.709.719c5.039 0 8.17 2.7 7.523 9-.684 6.299-4.104 9.718-10.223 9.718-5.04 0-8.171-2.7-7.487-8.998.648-6.3 4.067-9.72 10.187-9.72zm-2.124 14.94c2.52 0 4.14-1.62 4.607-5.94.396-3.78-.54-5.22-3.06-5.22s-4.139 1.62-4.57 5.94c-.397 3.78.503 5.22 3.023 5.22zm17.495 3.419h-5.039l1.872-17.998h5.04l-.396 2.88h.18c1.62-2.412 3.851-3.24 5.903-3.24 2.268 0 3.923 1.08 4.5 3.6h.144c1.62-2.412 3.995-3.6 6.515-3.6 3.239 0 5.29 2.16 4.787 7.559l-1.044 10.799h-5.04l1.08-10.079c.36-3.42-.54-4.32-1.8-4.32-1.979 0-4.319 2.844-4.715 6.66l-.827 7.739h-5.04l1.08-10.079c.36-3.42-.54-4.32-1.8-4.32-1.98 0-4.103 2.844-4.535 6.66l-.864 7.739zm26.57 7.199 2.627-25.197h5.004l-.36 2.88h.18c1.619-2.412 4.103-3.24 6.155-3.24 3.6 0 5.543 3.6 5.04 8.999-.54 5.4-3.708 9.719-9.648 9.719-1.044 0-2.16-.108-3.24-.288l-.72 7.127h-5.039zm6.227-11.339c.9.396 1.98.54 2.699.54 2.34 0 4.248-1.62 4.68-5.58.36-3.419-.36-5.218-2.16-5.218-2.484 0-4.392 2.88-4.824 6.658zm28.078-13.858h5.04l-1.872 17.998h-5.04l.396-2.88h-.18c-1.62 2.412-3.851 3.24-5.903 3.24-3.24 0-5.111-1.8-4.607-7.2l1.008-11.158h5.04l-1.08 10.079c-.36 3.42.54 4.32 1.799 4.32 1.98 0 4.104-2.845 4.536-6.66zm20.088-1.8-2.051 19.798h-5.148l2.052-19.798h-7.055l.467-4.32h19.258l-.468 4.32zm22.177 18.754c-2.161.9-4.32 1.404-6.696 1.404-5.292 0-8.855-1.872-8.1-9.18.649-6.262 4.176-9.538 9.648-9.538s7.594 3.42 7.055 6.84c-.432 2.735-2.736 6.19-11.699 4.678-.216 2.628 1.728 3.24 4.248 3.24 1.475 0 3.78-.432 5.147-.9l.396 3.456zm-2.99-10.835c.216-1.44-.72-2.52-2.7-2.52-1.835 0-3.203 1.044-3.563 3.96 2.052.576 5.903.972 6.263-1.44zm23.22-1.44c-1.187-.54-3.31-1.08-5.29-1.08-3.42 0-4.86 1.8-5.256 5.76-.36 3.42.54 5.04 4.14 5.04 1.8 0 3.815-.36 5.327-.9l.144 3.779c-1.512.72-4.824 1.08-7.163 1.08-5.04 0-8.172-2.7-7.487-9 .647-6.298 4.067-9.718 10.187-9.718 1.799 0 5.003.36 6.335 1.26l-.936 3.78zm-148.94 47.913c-1.836 16.957-15.66 23.005-29.484 23.005h-9.288l-2.808 26.892H35.529l7.56-72.36h25.813c17.28 0 25.056 8.423 23.652 22.464zM64.15 139.365c7.236 0 12.42-2.591 13.284-10.152.972-9.071-5.508-9.503-13.284-9.503h-7.02l-2.052 19.655zm40.823-32.616h25.813c24.732 0 33.588 15.012 31.428 36.18-2.592 23.977-17.496 36.181-41.149 36.181H97.413l7.56-72.36zm9.072 60.481h7.237c13.5 0 23.112-4.536 25.272-24.3 1.944-18.9-5.616-24.3-19.657-24.3h-7.775zm112.97-45.36c-4.212-1.62-9.396-3.24-16.416-3.24-15.12 0-22.357 7.56-24.193 24.84-1.62 15.984 2.376 23.76 18.577 23.76 7.02 0 13.716-2.268 19.44-4.86l.864 11.88c-6.048 3.024-15.228 5.94-25.489 5.94-22.572 0-31.104-16.956-29.052-36.72 2.16-20.737 14.148-37.801 38.557-37.801 7.128 0 16.416 1.188 21.816 3.78l-4.104 12.42z" fill="#fff" style="fill:#fff"/><g fill="none" mask="url(#c)" stroke="#fff" stroke-linecap="round" stroke-linejoin="round" stroke-miterlimit="28.7"><g stroke-width="1.856"><path d="m640.66 108.15 11.095-19.218h22.191l11.095 19.218-11.095 19.218h-22.191zM726.41 108.15l11.095-19.218h22.191l11.095 19.218-11.095 19.218h-22.191zM769.23 182.62l11.095-19.218h22.191l11.095 19.218-11.095 19.218h-22.191zM597.47 182.62l11.095-19.218h22.191l11.095 19.218-11.095 19.218h-22.191zM640.27 256.9l11.095-19.218h22.191l11.095 19.218-11.095 19.218h-22.191zM726 257.12l11.095-19.218h22.191l11.095 19.218-11.095 19.218h-22.191z" style="paint-order:stroke fill markers"/></g><path d="m676.23 182.4 14.657-25.387h29.315l14.656 25.387-14.656 25.387h-29.315z" stroke-width="2.452" style="paint-order:stroke fill markers"/><g stroke-width="1.856"><path d="m468.58 107.18 11.095-19.218h22.191l11.095 19.218-11.095 19.218h-22.191zM554.32 107.18l11.095-19.218h22.191l11.095 19.218-11.095 19.218h-22.191zM425.39 181.65l11.095-19.218h22.191l11.095 19.218-11.095 19.218h-22.191zM468.19 255.93l11.095-19.218h22.191l11.095 19.218-11.095 19.218h-22.191zM553.92 256.15l11.095-19.218h22.191l11.095 19.218-11.095 19.218h-22.191z" style="paint-order:stroke fill markers"/></g><path d="m504.14 181.42 14.657-25.387h29.315l14.656 25.387-14.656 25.387h-29.315z" stroke-width="2.452" style="paint-order:stroke fill markers"/><g stroke-width="1.856"><path d="m340.77 181.65 11.095-19.218h22.191l11.095 19.218-11.095 19.218h-22.191zM426.59 33.329l11.095-19.218h22.191l11.095 19.218-11.095 19.218h-22.191zM598.02 33.467l11.095-19.218h22.191l11.095 19.218-11.095 19.218h-22.191z" style="paint-order:stroke fill markers"/></g><g stroke-width="1.856"><path d="m734.85 182.4 34.372.22M720.2 207.78l16.898 30.119M690.88 207.78l-17.324 29.896M676.23 182.4l-34.372.22M720.2 157.01l17.306-29.64M690.88 157.01l-16.932-29.64M597.47 182.62l-34.702-1.193M565.01 236.93l-16.898-30.119M518.8 206.81l-17.324 29.896M504.14 181.42l-34.372.22M425.39 181.65h-40.234M518.8 156.04l-16.932-29.64M548.11 156.04l17.306-29.64M587.61 87.963l21.504-35.278M479.68 87.963l-19.802-35.416" style="paint-order:stroke fill markers"/></g></g></svg>