<svg viewBox="0 0 800 260" xml:space="preserve" xmlns="http://www.w3.org/2000/svg"><defs><linearGradient id="a" x1="800" x2="324.64" y1="260" gradientUnits="userSpaceOnUse"><stop stop-color="#fff" stop-opacity=".347" offset="0"/><stop stop-opacity=".104" offset="1"/></linearGradient><linearGradient id="b" x1="-1.309" x2="800.09" y1="21.42" y2="238.25" gradientUnits="userSpaceOnUse"><stop stop-color="#1565b1" offset=".2"/><stop stop-color="#1a63ad" offset=".274"/><stop stop-color="#2b5da2" offset=".37"/><stop stop-color="#465490" offset=".48"/><stop stop-color="#6c4778" offset=".598"/><stop stop-color="#9c3758" offset=".724"/><stop stop-color="#d72332" offset=".855"/><stop stop-color="#ed1c24" offset=".9"/></linearGradient><mask id="c" maskUnits="userSpaceOnUse"><rect x="324.64" width="475.36" height="260" rx=".1" ry=".1" fill="url(#a)" style="paint-order:stroke fill markers"/></mask></defs><path d="M0 0h800v260H0z" fill="url(#b)" data-name="Layer 1"/><path d="m68.598 84.792-.36 3.563h-5.94l-1.475 6.264h-3.816l1.513-6.263h-4.572l-1.476 6.263h-3.815l1.511-6.263h-4.643l.36-3.564h5.147l1.26-5.04h-5.507l.36-3.563h6.01l1.406-5.689h3.708l-1.405 5.688h4.644l1.403-5.688h3.707l-1.404 5.688h4.644l-.36 3.563h-5.111l-1.224 5.04h5.435zm-13.786 0h4.571l1.26-5.04h-4.607zm35.819-9.251c-1.404-.54-3.132-1.08-5.472-1.08-5.04 0-7.451 2.52-8.063 8.28-.54 5.326.792 7.918 6.191 7.918 2.34 0 4.571-.756 6.48-1.62l.287 3.96c-2.015 1.008-5.075 1.98-8.494 1.98-7.524 0-10.367-5.652-9.683-12.239.72-6.91 4.715-12.598 12.85-12.598 2.376 0 5.471.396 7.271 1.26l-1.367 4.138zm12.709.719c5.039 0 8.17 2.7 7.523 9-.684 6.299-4.104 9.718-10.223 9.718-5.04 0-8.171-2.7-7.487-8.998.648-6.3 4.067-9.72 10.187-9.72zm-2.124 14.94c2.52 0 4.14-1.62 4.607-5.94.396-3.78-.54-5.22-3.06-5.22s-4.139 1.62-4.57 5.94c-.397 3.78.503 5.22 3.023 5.22zm17.495 3.419h-5.039l1.872-17.998h5.04l-.396 2.88h.18c1.62-2.412 3.851-3.24 5.903-3.24 2.268 0 3.923 1.08 4.5 3.6h.144c1.62-2.412 3.995-3.6 6.515-3.6 3.239 0 5.29 2.16 4.787 7.559l-1.044 10.799h-5.04l1.08-10.079c.36-3.42-.54-4.32-1.8-4.32-1.979 0-4.319 2.844-4.715 6.66l-.827 7.739h-5.04l1.08-10.079c.36-3.42-.54-4.32-1.8-4.32-1.98 0-4.103 2.844-4.535 6.66l-.864 7.739zm26.57 7.199 2.627-25.197h5.004l-.36 2.88h.18c1.619-2.412 4.103-3.24 6.155-3.24 3.6 0 5.543 3.6 5.04 8.999-.54 5.4-3.708 9.719-9.648 9.719-1.044 0-2.16-.108-3.24-.288l-.72 7.127h-5.039zm6.227-11.339c.9.396 1.98.54 2.699.54 2.34 0 4.248-1.62 4.68-5.58.36-3.419-.36-5.218-2.16-5.218-2.484 0-4.392 2.88-4.824 6.658zm28.078-13.858h5.04l-1.872 17.998h-5.04l.396-2.88h-.18c-1.62 2.412-3.851 3.24-5.903 3.24-3.24 0-5.111-1.8-4.607-7.2l1.008-11.158h5.04l-1.08 10.079c-.36 3.42.54 4.32 1.799 4.32 1.98 0 4.104-2.845 4.536-6.66zm20.088-1.8-2.051 19.798h-5.148l2.052-19.798h-7.055l.467-4.32h19.258l-.468 4.32zm22.177 18.754c-2.161.9-4.32 1.404-6.696 1.404-5.292 0-8.855-1.872-8.1-9.18.649-6.262 4.176-9.538 9.648-9.538s7.594 3.42 7.055 6.84c-.432 2.735-2.736 6.19-11.699 4.678-.216 2.628 1.728 3.24 4.248 3.24 1.475 0 3.78-.432 5.147-.9l.396 3.456zm-2.99-10.835c.216-1.44-.72-2.52-2.7-2.52-1.835 0-3.203 1.044-3.563 3.96 2.052.576 5.903.972 6.263-1.44zm23.22-1.44c-1.187-.54-3.31-1.08-5.29-1.08-3.42 0-4.86 1.8-5.256 5.76-.36 3.42.54 5.04 4.14 5.04 1.8 0 3.815-.36 5.327-.9l.144 3.779c-1.512.72-4.824 1.08-7.163 1.08-5.04 0-8.172-2.7-7.487-9 .647-6.298 4.067-9.718 10.187-9.718 1.799 0 5.003.36 6.335 1.26l-.936 3.78zm-148.94 47.913c-1.836 16.957-15.66 23.005-29.484 23.005h-9.288l-2.808 26.892H36.116l7.56-72.36h25.813c17.28 0 25.056 8.423 23.652 22.464zm-28.404 10.152c7.236 0 12.42-2.591 13.284-10.152.972-9.071-5.508-9.503-13.284-9.503h-7.02l-2.052 19.655zm48.383 39.745H98l5.616-54h15.12l-1.188 8.64h.54c4.86-7.236 12.637-9.72 18.793-9.72l-1.297 13.5c-14.903-1.08-18.576 6.911-19.872 18.36zm55.944-55.08c15.12 0 24.517 8.099 22.573 27-2.052 18.9-12.313 29.16-30.673 29.16-15.12 0-24.516-8.1-22.465-27 1.945-18.901 12.205-29.16 30.565-29.16zm-6.372 44.82c7.56 0 12.42-4.86 13.824-17.82 1.188-11.34-1.62-15.66-9.18-15.66s-12.42 4.86-13.716 17.82c-1.188 11.34 1.512 15.66 9.072 15.66zm83.051-29.7c-3.563-1.62-9.935-3.24-15.875-3.24-10.26 0-14.58 5.4-15.768 17.28-1.08 10.26 1.62 15.12 12.42 15.12 5.4 0 11.448-1.08 15.984-2.7l.432 11.34c-4.536 2.16-14.473 3.24-21.493 3.24-15.12 0-24.516-8.1-22.464-27 1.944-18.901 12.204-29.16 30.564-29.16 5.4 0 15.013 1.08 19.009 3.78l-2.808 11.34zm51.084 36.828c-6.48 2.7-12.96 4.212-20.088 4.212-15.876 0-26.569-5.616-24.3-27.54 1.944-18.793 12.528-28.62 28.944-28.62s22.789 10.26 21.169 20.52c-1.297 8.208-8.21 18.576-35.101 14.04-.648 7.885 5.184 9.72 12.744 9.72 4.428 0 11.34-1.296 15.445-2.7zm-8.964-32.508c.648-4.32-2.16-7.56-8.1-7.56-5.508 0-9.612 3.131-10.692 11.88 6.156 1.728 17.712 2.916 18.792-4.32zm23.112 21.6c4.32 1.62 11.555 3.24 17.064 3.24 5.4 0 9.288-1.08 9.612-4.32.432-4.32-4.104-5.4-9.612-6.912-8.856-2.16-16.417-7.129-15.337-17.28 1.189-11.664 9.721-15.769 23.221-15.769 5.4 0 13.284 1.62 18.036 3.24l-3.563 11.881c-5.833-2.16-11.449-3.24-14.797-3.24-5.292 0-7.56 1.62-7.777 3.78-.323 3.24 3.025 4.212 9.073 5.831 8.856 2.377 17.172 5.94 15.984 17.39-1.296 12.095-12.096 17.28-26.136 17.28-4.86 0-14.364-1.08-19.009-3.24l3.24-11.88zm51.298 0c4.32 1.62 11.556 3.24 17.065 3.24 5.4 0 9.288-1.08 9.611-4.32.433-4.32-4.103-5.4-9.611-6.912-8.856-2.16-16.417-7.129-15.337-17.28 1.189-11.664 9.72-15.769 23.22-15.769 5.401 0 13.285 1.62 18.037 3.24l-3.564 11.881c-5.833-2.16-11.448-3.24-14.796-3.24-5.292 0-7.56 1.62-7.777 3.78-.323 3.24 3.025 4.212 9.072 5.831 8.857 2.377 17.173 5.94 15.985 17.39-1.296 12.095-12.096 17.28-26.136 17.28-4.86 0-14.364-1.08-19.009-3.24l3.24-11.88zm72.143-29.7h24.84l-1.403 12.96h-24.84l-3.133 30.78h-15.443l7.56-72.361h46.656l-1.404 12.96h-31.213l-1.62 15.66zm62.101-11.34c15.12 0 24.515 8.099 22.572 27-2.053 18.9-12.313 29.16-30.673 29.16-15.12 0-24.517-8.1-22.464-27 1.944-18.901 12.204-29.16 30.565-29.16zm-6.372 44.82c7.56 0 12.42-4.86 13.824-17.82 1.187-11.34-1.62-15.66-9.18-15.66s-12.42 4.86-13.717 17.82c-1.188 11.34 1.512 15.66 9.073 15.66zm52.487 10.26h-15.12l5.615-54h15.121l-1.188 8.64h.54c4.86-7.236 12.635-9.72 18.792-9.72l-1.296 13.5c-14.905-1.08-18.576 6.911-19.872 18.36zm72.144-39.96c-3.564-1.62-9.936-3.24-15.877-3.24-10.26 0-14.58 5.4-15.767 17.28-1.08 10.26 1.62 15.12 12.42 15.12 5.4 0 11.448-1.08 15.984-2.7l.432 11.34c-4.536 2.16-14.472 3.24-21.492 3.24-15.12 0-24.517-8.1-22.464-27 1.943-18.901 12.204-29.16 30.564-29.16 5.4 0 15.012 1.08 19.008 3.78zm51.083 36.828c-6.48 2.7-12.96 4.212-20.088 4.212-15.876 0-26.569-5.616-24.3-27.54 1.943-18.793 12.528-28.62 28.944-28.62s22.788 10.26 21.168 20.52c-1.296 8.208-8.208 18.576-35.1 14.04-.648 7.885 5.184 9.72 12.744 9.72 4.428 0 11.34-1.296 15.444-2.7zm-8.964-32.508c.648-4.32-2.16-7.56-8.1-7.56-5.508 0-9.612 3.131-10.692 11.88 6.156 1.728 17.711 2.916 18.792-4.32z" fill="#fff" style="fill:#fff"/><g fill="none" mask="url(#c)" stroke="#fff" stroke-linecap="round" stroke-linejoin="round" stroke-miterlimit="28.7"><g stroke-width="1.856"><path d="m640.66 108.15 11.095-19.218h22.191l11.095 19.218-11.095 19.218h-22.191zM726.41 108.15l11.095-19.218h22.191l11.095 19.218-11.095 19.218h-22.191zM769.23 182.62l11.095-19.218h22.191l11.095 19.218-11.095 19.218h-22.191zM597.47 182.62l11.095-19.218h22.191l11.095 19.218-11.095 19.218h-22.191zM640.27 256.9l11.095-19.218h22.191l11.095 19.218-11.095 19.218h-22.191zM726 257.12l11.095-19.218h22.191l11.095 19.218-11.095 19.218h-22.191z" style="paint-order:stroke fill markers"/></g><path d="m676.23 182.4 14.657-25.387h29.315l14.656 25.387-14.656 25.387h-29.315z" stroke-width="2.452" style="paint-order:stroke fill markers"/><g stroke-width="1.856"><path d="m468.58 107.18 11.095-19.218h22.191l11.095 19.218-11.095 19.218h-22.191zM554.32 107.18l11.095-19.218h22.191l11.095 19.218-11.095 19.218h-22.191zM425.39 181.65l11.095-19.218h22.191l11.095 19.218-11.095 19.218h-22.191zM468.19 255.93l11.095-19.218h22.191l11.095 19.218-11.095 19.218h-22.191zM553.92 256.15l11.095-19.218h22.191l11.095 19.218-11.095 19.218h-22.191z" style="paint-order:stroke fill markers"/></g><path d="m504.14 181.42 14.657-25.387h29.315l14.656 25.387-14.656 25.387h-29.315z" stroke-width="2.452" style="paint-order:stroke fill markers"/><g stroke-width="1.856"><path d="m340.77 181.65 11.095-19.218h22.191l11.095 19.218-11.095 19.218h-22.191zM426.59 33.329l11.095-19.218h22.191l11.095 19.218-11.095 19.218h-22.191zM598.02 33.467l11.095-19.218h22.191l11.095 19.218-11.095 19.218h-22.191z" style="paint-order:stroke fill markers"/></g><g stroke-width="1.856"><path d="m734.85 182.4 34.372.22M720.2 207.78l16.898 30.119M690.88 207.78l-17.324 29.896M676.23 182.4l-34.372.22M720.2 157.01l17.306-29.64M690.88 157.01l-16.932-29.64M597.47 182.62l-34.702-1.193M565.01 236.93l-16.898-30.119M518.8 206.81l-17.324 29.896M504.14 181.42l-34.372.22M425.39 181.65h-40.234M518.8 156.04l-16.932-29.64M548.11 156.04l17.306-29.64M587.61 87.963l21.504-35.278M479.68 87.963l-19.802-35.416" style="paint-order:stroke fill markers"/></g></g></svg>